<svg xmlns="http://www.w3.org/2000/svg" viewBox="0 0 32 32" role="img" aria-label="Turiya">
  <rect width="32" height="32" rx="8" fill="#0b1220" />
  <path
    fill="none"
    stroke="#67e8f9"
    stroke-width="2.15"
    stroke-linecap="round"
    stroke-linejoin="round"
    d="M16.29,16.14 L16.36,16.26 L16.4,16.41 L16.4,16.57 L16.34,16.74 L16.24,16.91 L16.09,17.06 L15.9,17.19 L15.67,17.27 L15.4,17.31 L15.12,17.29 L14.82,17.21 L14.53,17.06 L14.26,16.85 L14.02,16.57 L13.83,16.24 L13.7,15.86 L13.64,15.43 L13.65,14.99 L13.76,14.53 L13.95,14.09 L14.23,13.67 L14.6,13.29 L15.05,12.97 L15.57,12.73 L16.14,12.58 L16.75,12.53 L17.38,12.6 L18.01,12.78 L18.61,13.08 L19.17,13.49 L19.66,14.01 L20.07,14.63 L20.36,15.33 L20.54,16.09 L20.58,16.89 L20.47,17.7 L20.22,18.51 L19.82,19.27 L19.29,19.98 L18.62,20.59 L17.83,21.08 L16.96,21.45 L16.01,21.65 L15.02,21.69 L14.02,21.56 L13.04,21.25 L12.1,20.76 L11.25,20.1 L10.51,19.29 L9.92,18.35 L9.48,17.29 L9.23,16.16 L9.18,14.98 L9.34,13.79 L9.71,12.62 L10.28,11.52 L11.05,10.51 L12,9.64 L13.1,8.94 L14.33,8.42 L15.64,8.12 L17.01,8.06 L18.4,8.23 L19.75,8.64"
  />
  <circle cx="16" cy="16" r="2.1" fill="#67e8f9" />
</svg>
